# Blender 5.0.1
# www.blender.org
mtllib Maze5.mtl
o Vert.003
v 0.000000 0.000000 0.000000
v -1.000000 0.000000 0.000000
v -1.000000 0.500000 -4.000000
v -1.000000 0.500000 -3.000000
v -4.000000 0.000000 0.000000
v -3.000000 0.500000 -3.000000
v -3.000000 0.500000 -4.000000
v -2.000000 0.500000 -4.000000
v -2.000000 0.500000 -2.000000
v -1.000000 0.500000 -2.000000
v -4.000000 0.000000 -3.000000
v -2.000000 0.500000 -5.000000
v -4.000000 0.500000 -5.000000
v 0.000000 0.000000 -5.000000
v -4.000000 0.000000 -5.000000
v 0.000000 0.500000 -5.000000
v -2.000000 0.000000 -5.000000
v -4.000000 0.500000 -3.000000
v -4.000000 0.500000 0.000000
v -1.000000 0.000000 -2.000000
v -2.000000 0.000000 -2.000000
v -2.000000 0.000000 -4.000000
v -3.000000 0.000000 -4.000000
v -3.000000 0.000000 -3.000000
v -1.000000 0.500000 0.000000
v -1.000000 0.000000 -3.000000
v -1.000000 0.000000 -4.000000
v 0.000000 0.500000 0.000000
v -3.000000 0.000000 -1.000000
v -2.000000 0.000000 -1.000000
v -3.000000 0.500000 -1.000000
v -2.000000 0.500000 -1.000000
v -0.007071 0.000000 -0.007071
v -1.004472 0.000000 -0.008944
v -0.990000 0.500000 -4.000000
v -0.992929 0.500000 -2.992929
v -3.992929 0.000000 -0.007071
v -2.990000 0.500000 -3.000000
v -3.000000 0.500000 -3.990000
v -1.992929 0.500000 -3.992929
v -2.000000 0.500000 -1.990000
v -1.007071 0.500000 -1.992929
v -3.991056 0.000000 -3.004472
v -1.995528 0.500000 -4.991056
v -3.992929 0.500000 -4.992929
v -0.007071 0.000000 -4.992929
v -3.992929 0.000000 -4.992929
v -0.007071 0.500000 -4.992929
v -1.995528 0.000000 -4.991056
v -3.991056 0.500000 -3.004472
v -3.992929 0.500000 -0.007071
v -1.007071 0.000000 -1.992929
v -2.000000 0.000000 -1.990000
v -1.992929 0.000000 -3.992929
v -3.000000 0.000000 -3.990000
v -2.990000 0.000000 -3.000000
v -1.004472 0.500000 -0.008944
v -0.992929 0.000000 -2.992929
v -0.990000 0.000000 -4.000000
v -0.007071 0.500000 -0.007071
v -2.992929 0.000000 -1.007071
v -2.000000 0.000000 -1.010000
v -2.992929 0.500000 -1.007071
v -2.000000 0.500000 -1.010000
vn -0.0000 -0.0000 -1.0000
vn -0.0000 -0.0000 1.0000
vn -1.0000 -0.0000 -0.0000
vn 1.0000 -0.0000 -0.0000
vn -0.0009 -0.0000 1.0000
vn -0.0035 -0.0000 1.0000
vn -0.0006 -0.0000 -1.0000
vn 1.0000 -0.0000 0.0029
vn -1.0000 -0.0000 0.0013
vn 0.0029 -0.0000 1.0000
vn 1.0000 -0.0000 -0.0009
vn 1.0000 -0.0000 0.0015
vn 1.0000 -0.0000 -0.0026
vn -0.0029 -0.0000 -1.0000
vn 0.0019 -0.0000 -1.0000
vn 0.0045 -0.0000 -1.0000
vn 0.0009 -0.0000 1.0000
vn 1.0000 -0.0000 0.0006
vn -0.0000 -1.0000 -0.0000
vn -0.0000 1.0000 -0.0000
s 0
f 17//1 15//1 13//1 12//1
f 24//1 6//1 4//1 26//1
f 2//2 25//2 19//2 5//2
f 26//3 4//3 3//3 27//3
f 2//4 20//4 10//4 25//4
f 14//4 16//4 28//4 1//4
f 20//1 21//1 9//1 10//1
f 11//3 18//3 13//3 15//3
f 24//3 29//3 31//3 6//3
f 17//3 22//3 8//3 12//3
f 29//2 30//2 32//2 31//2
f 22//1 23//1 7//1 8//1
f 1//2 28//2 25//2 2//2
f 11//2 24//2 6//2 18//2
f 14//1 17//1 12//1 16//1
f 5//3 19//3 18//3 11//3
f 49//5 44//5 45//5 47//5
f 56//6 58//6 36//6 38//6
f 34//7 37//7 51//7 57//7
f 58//8 59//8 35//8 36//8
f 34//9 57//9 42//9 52//9
f 46//3 33//3 60//3 48//3
f 52//10 42//10 41//10 53//10
f 43//11 47//11 45//11 50//11
f 56//12 38//12 63//12 61//12
f 49//13 44//13 40//13 54//13
f 61//14 63//14 64//14 62//14
f 54//10 40//10 39//10 55//10
f 33//15 34//15 57//15 60//15
f 43//16 50//16 38//16 56//16
f 46//17 48//17 44//17 49//17
f 37//18 43//18 50//18 51//18
f 1//19 2//19 34//19 33//19
f 3//20 4//20 36//20 35//20
f 4//20 6//20 38//20 36//20
f 2//19 5//19 37//19 34//19
f 18//20 6//20 38//20 50//20
f 8//20 7//20 39//20 40//20
f 12//20 8//20 40//20 44//20
f 10//20 9//20 41//20 42//20
f 25//20 10//20 42//20 57//20
f 5//19 11//19 43//19 37//19
f 12//20 13//20 45//20 44//20
f 16//20 12//20 44//20 48//20
f 14//19 1//19 33//19 46//19
f 11//19 15//19 47//19 43//19
f 28//20 16//20 48//20 60//20
f 13//20 18//20 50//20 45//20
f 17//19 14//19 46//19 49//19
f 15//19 17//19 49//19 47//19
f 18//20 19//20 51//20 50//20
f 20//19 2//19 34//19 52//19
f 21//19 20//19 52//19 53//19
f 22//19 17//19 49//19 54//19
f 23//19 22//19 54//19 55//19
f 24//19 11//19 43//19 56//19
f 19//20 25//20 57//20 51//20
f 24//19 26//19 58//19 56//19
f 26//19 27//19 59//19 58//19
f 25//20 28//20 60//20 57//20
f 29//19 24//19 56//19 61//19
f 30//19 29//19 61//19 62//19
f 6//20 31//20 63//20 38//20
f 31//20 32//20 64//20 63//20
f 27//1 3//1 35//1 59//1
f 9//3 21//3 53//3 41//3
f 32//4 30//4 62//4 64//4
f 7//3 23//3 55//3 39//3
