# Blender 5.0.1
# www.blender.org
mtllib Maze3.mtl
o Vert
v 0.000000 0.000000 0.000000
v -1.000000 0.500000 -3.000000
v -3.000000 0.500000 -3.000000
v -3.000000 0.500000 -2.000000
v -4.000000 0.000000 0.000000
v -3.000000 0.500000 -1.000000
v -1.000000 0.500000 -1.000000
v 0.000000 0.000000 -2.000000
v -4.000000 0.000000 -2.000000
v -2.000000 0.500000 -1.000000
v -2.000000 0.500000 -2.000000
v -4.000000 0.500000 -5.000000
v -4.000000 0.000000 -4.000000
v 0.000000 0.000000 -5.000000
v -4.000000 0.000000 -5.000000
v 0.000000 0.500000 -5.000000
v -4.000000 0.500000 -4.000000
v -4.000000 0.500000 -2.000000
v 0.000000 0.500000 -2.000000
v -2.000000 0.000000 -2.000000
v -2.000000 0.000000 -1.000000
v -1.000000 0.000000 -1.000000
v -3.000000 0.000000 -1.000000
v -3.000000 0.000000 -2.000000
v -3.000000 0.000000 -3.000000
v -4.000000 0.500000 0.000000
v -1.000000 0.000000 -3.000000
v -1.000000 0.000000 -4.000000
v 0.000000 0.500000 0.000000
v -2.000000 0.000000 -4.000000
v -1.000000 0.500000 -4.000000
v -2.000000 0.500000 -4.000000
v -0.007071 0.000000 -0.007071
v -0.992929 0.500000 -2.992929
v -2.992929 0.500000 -2.992929
v -2.992929 0.500000 -1.992929
v -3.992929 0.000000 -0.007071
v -3.000000 0.500000 -0.990000
v -1.000000 0.500000 -1.010000
v -0.008944 0.000000 -1.995528
v -4.000000 0.000000 -1.990000
v -1.990000 0.500000 -1.000000
v -1.992929 0.500000 -1.992929
v -3.992929 0.500000 -4.992929
v -4.000000 0.000000 -4.010000
v -0.007071 0.000000 -4.992929
v -3.992929 0.000000 -4.992929
v -0.007071 0.500000 -4.992929
v -4.000000 0.500000 -4.010000
v -4.000000 0.500000 -1.990000
v -0.008944 0.500000 -1.995528
v -1.992929 0.000000 -1.992929
v -1.990000 0.000000 -1.000000
v -1.000000 0.000000 -1.010000
v -3.000000 0.000000 -0.990000
v -2.992929 0.000000 -1.992929
v -2.992929 0.000000 -2.992929
v -3.992929 0.500000 -0.007071
v -0.992929 0.000000 -2.992929
v -0.990000 0.000000 -4.000000
v -0.007071 0.500000 -0.007071
v -2.000000 0.000000 -4.010000
v -0.990000 0.500000 -4.000000
v -2.000000 0.500000 -4.010000
vn -0.0000 -0.0000 1.0000
vn -1.0000 -0.0000 -0.0000
vn -0.0000 -0.0000 -1.0000
vn 1.0000 -0.0000 -0.0000
vn 1.0000 -0.0000 -0.0036
vn 0.0099 -0.0000 1.0000
vn 0.0029 -0.0000 1.0000
vn 0.0013 -0.0000 1.0000
vn -1.0000 -0.0000 -0.0006
vn 1.0000 -0.0000 0.0029
vn 1.0000 -0.0000 -0.0029
vn 1.0000 -0.0000 0.0072
vn -1.0000 -0.0000 0.0009
vn -0.0101 -0.0000 -0.9999
vn -0.0000 1.0000 -0.0000
vn -0.0000 -1.0000 -0.0000
s 0
f 13//1 30//1 32//1 17//1
f 5//2 26//2 18//2 9//2
f 21//3 23//3 6//3 10//3
f 9//3 18//3 4//3 24//3
f 24//2 4//2 3//2 25//2
f 14//3 15//3 12//3 16//3
f 1//1 29//1 26//1 5//1
f 9//4 13//4 17//4 18//4
f 25//3 3//3 2//3 27//3
f 8//3 20//3 11//3 19//3
f 14//4 16//4 19//4 8//4
f 27//2 2//2 31//2 28//2
f 20//2 21//2 10//2 11//2
f 13//2 17//2 12//2 15//2
f 8//4 19//4 29//4 1//4
f 21//1 22//1 7//1 10//1
f 45//3 49//3 64//3 62//3
f 37//5 41//5 50//5 58//5
f 53//6 42//6 38//6 55//6
f 41//7 56//7 36//7 50//7
f 56//4 57//4 35//4 36//4
f 46//1 48//1 44//1 47//1
f 33//3 37//3 58//3 61//3
f 41//2 50//2 49//2 45//2
f 57//1 59//1 34//1 35//1
f 40//8 51//8 43//8 52//8
f 46//9 40//9 51//9 48//9
f 59//10 60//10 63//10 34//10
f 52//11 43//11 42//11 53//11
f 45//12 47//12 44//12 49//12
f 40//13 33//13 61//13 51//13
f 53//14 42//14 39//14 54//14
f 2//15 3//15 35//15 34//15
f 3//15 4//15 36//15 35//15
f 4//15 18//15 50//15 36//15
f 1//16 5//16 37//16 33//16
f 10//15 6//15 38//15 42//15
f 10//15 7//15 39//15 42//15
f 8//16 1//16 33//16 40//16
f 5//16 9//16 41//16 37//16
f 11//15 10//15 42//15 43//15
f 19//15 11//15 43//15 51//15
f 16//15 12//15 44//15 48//15
f 13//15 9//15 41//15 45//15
f 14//16 8//16 40//16 46//16
f 13//16 15//16 47//16 45//16
f 18//15 17//15 49//15 50//15
f 12//15 17//15 49//15 44//15
f 19//15 16//15 48//15 51//15
f 15//16 14//16 46//16 47//16
f 18//15 26//15 58//15 50//15
f 20//16 8//16 40//16 52//16
f 21//16 20//16 52//16 53//16
f 22//16 21//16 53//16 54//16
f 23//16 21//16 53//16 55//16
f 9//16 24//16 56//16 41//16
f 24//16 25//16 57//16 56//16
f 29//15 19//15 51//15 61//15
f 25//16 27//16 59//16 57//16
f 27//16 28//16 60//16 59//16
f 26//15 29//15 61//15 58//15
f 30//16 13//16 45//16 62//16
f 31//15 2//15 34//15 63//15
f 17//15 32//15 64//15 49//15
f 32//4 30//4 62//4 64//4
f 6//2 23//2 55//2 38//2
f 28//3 31//3 63//3 60//3
f 7//4 22//4 54//4 39//4
