# Blender 5.0.1
# www.blender.org
mtllib Maze4.mtl
o Vert.002
v 0.000000 0.000000 0.000000
v -1.000000 0.000000 0.000000
v -2.000000 0.000000 0.000000
v -3.000000 0.000000 0.000000
v -4.000000 0.000000 0.000000
v 0.000000 0.000000 -1.000000
v -4.000000 0.000000 -1.000000
v 0.000000 0.000000 -2.000000
v -4.000000 0.000000 -2.000000
v 0.000000 0.000000 -3.000000
v -4.000000 0.000000 -3.000000
v 0.000000 0.000000 -4.000000
v -4.000000 0.000000 -4.000000
v 0.000000 0.000000 -5.000000
v -4.000000 0.000000 -5.000000
v -1.000000 0.000000 -5.000000
v -2.000000 0.000000 -5.000000
v -3.000000 0.000000 -5.000000
v -3.000000 0.000000 -1.000000
v -3.000000 0.000000 -2.000000
v -2.000000 0.000000 -2.000000
v -2.000000 0.000000 -1.000000
v -3.000000 0.000000 -3.000000
v -2.000000 0.000000 -3.000000
v -1.000000 0.000000 -3.000000
v -1.000000 0.000000 -2.000000
v -1.000000 0.000000 -1.000000
v -1.000000 0.000000 -4.000000
v -2.000000 0.000000 -4.000000
v -3.000000 0.000000 -4.000000
v 0.000000 0.500000 0.000000
v -1.000000 0.500000 0.000000
v -2.000000 0.500000 0.000000
v -3.000000 0.500000 0.000000
v -4.000000 0.500000 0.000000
v 0.000000 0.500000 -1.000000
v -4.000000 0.500000 -1.000000
v 0.000000 0.500000 -2.000000
v -4.000000 0.500000 -2.000000
v 0.000000 0.500000 -3.000000
v -4.000000 0.500000 -3.000000
v 0.000000 0.500000 -4.000000
v -4.000000 0.500000 -4.000000
v 0.000000 0.500000 -5.000000
v -4.000000 0.500000 -5.000000
v -1.000000 0.500000 -5.000000
v -2.000000 0.500000 -5.000000
v -3.000000 0.500000 -5.000000
v -3.000000 0.500000 -1.000000
v -3.000000 0.500000 -2.000000
v -2.000000 0.500000 -2.000000
v -2.000000 0.500000 -1.000000
v -3.000000 0.500000 -3.000000
v -2.000000 0.500000 -3.000000
v -1.000000 0.500000 -3.000000
v -1.000000 0.500000 -2.000000
v -1.000000 0.500000 -1.000000
v -1.000000 0.500000 -4.000000
v -2.000000 0.500000 -4.000000
v -3.000000 0.500000 -4.000000
v -0.007071 0.000000 -0.007071
v -1.000000 0.000000 -0.010000
v -2.000000 0.000000 -0.010000
v -3.004472 0.000000 -0.008944
v -3.992929 0.000000 -0.007071
v -0.010000 0.000000 -1.000000
v -3.990000 0.000000 -1.000000
v -0.010000 0.000000 -2.000000
v -4.000000 0.000000 -1.990000
v -0.010000 0.000000 -3.000000
v -4.000000 0.000000 -2.990000
v -0.008944 0.000000 -3.995528
v -3.990000 0.000000 -4.000000
v -0.007071 0.000000 -4.992929
v -3.992929 0.000000 -4.992929
v -1.000000 0.000000 -4.990000
v -2.000000 0.000000 -4.990000
v -2.995528 0.000000 -4.991056
v -3.010000 0.000000 -1.000000
v -3.000000 0.000000 -1.990000
v -2.007071 0.000000 -1.992929
v -2.010000 0.000000 -1.000000
v -3.000000 0.000000 -2.990000
v -2.000000 0.000000 -2.990000
v -1.007071 0.000000 -2.992929
v -1.010000 0.000000 -2.000000
v -1.010000 0.000000 -1.000000
v -1.000000 0.000000 -3.990000
v -2.000000 0.000000 -3.990000
v -2.990000 0.000000 -4.000000
v -0.007071 0.500000 -0.007071
v -1.000000 0.500000 -0.010000
v -2.000000 0.500000 -0.010000
v -3.004472 0.500000 -0.008944
v -3.992929 0.500000 -0.007071
v -0.010000 0.500000 -1.000000
v -3.990000 0.500000 -1.000000
v -0.010000 0.500000 -2.000000
v -4.000000 0.500000 -1.990000
v -0.010000 0.500000 -3.000000
v -4.000000 0.500000 -2.990000
v -0.008944 0.500000 -3.995528
v -3.990000 0.500000 -4.000000
v -0.007071 0.500000 -4.992929
v -3.992929 0.500000 -4.992929
v -1.000000 0.500000 -4.990000
v -2.000000 0.500000 -4.990000
v -2.995528 0.500000 -4.991056
v -3.010000 0.500000 -1.000000
v -3.000000 0.500000 -1.990000
v -2.007071 0.500000 -1.992929
v -2.010000 0.500000 -1.000000
v -3.000000 0.500000 -2.990000
v -2.000000 0.500000 -2.990000
v -1.007071 0.500000 -2.992929
v -1.010000 0.500000 -2.000000
v -1.010000 0.500000 -1.000000
v -1.000000 0.500000 -3.990000
v -2.000000 0.500000 -3.990000
v -2.990000 0.500000 -4.000000
vn 1.0000 -0.0000 -0.0000
vn -1.0000 -0.0000 -0.0000
vn -0.0000 -0.0000 1.0000
vn -0.0000 -0.0000 -1.0000
vn -1.0000 -0.0000 -0.0029
vn -1.0000 -0.0000 -0.0019
vn 1.0000 -0.0000 -0.0029
vn 0.0029 -0.0000 -1.0000
vn 0.0056 -0.0000 1.0000
vn -0.0019 -0.0000 1.0000
vn 0.0030 -0.0000 1.0000
vn -0.0011 -0.0000 -1.0000
vn 1.0000 -0.0000 -0.0056
vn -0.0019 -0.0000 -1.0000
vn -0.0011 -0.0000 1.0000
vn -1.0000 -0.0000 0.0029
vn -1.0000 -0.0000 0.0056
vn 1.0000 -0.0000 0.0029
vn 0.0029 -0.0000 1.0000
vn 0.9999 -0.0000 -0.0101
vn -1.0000 -0.0000 -0.0011
vn 1.0000 -0.0000 0.0099
vn -0.0000 -1.0000 -0.0000
vn -0.0000 1.0000 -0.0000
s 0
f 25//1 55//1 56//1 26//1
f 14//1 44//1 42//1 12//1
f 26//1 56//1 57//1 27//1
f 13//2 43//2 45//2 15//2
f 1//3 31//3 32//3 2//3
f 12//4 28//4 58//4 42//4
f 18//4 15//4 45//4 48//4
f 2//3 32//3 33//3 3//3
f 28//4 29//4 59//4 58//4
f 14//4 16//4 46//4 44//4
f 3//3 33//3 34//3 4//3
f 18//2 30//2 60//2 48//2
f 16//4 17//4 47//4 46//4
f 4//3 34//3 35//3 5//3
f 17//4 18//4 48//4 47//4
f 6//1 36//1 31//1 1//1
f 4//1 19//1 49//1 34//1
f 5//2 35//2 37//2 7//2
f 9//4 39//4 50//4 20//4
f 8//1 38//1 36//1 6//1
f 20//4 50//4 51//4 21//4
f 7//2 37//2 39//2 9//2
f 21//1 51//1 52//1 22//1
f 10//1 40//1 38//1 8//1
f 11//4 41//4 53//4 23//4
f 9//1 11//1 41//1 39//1
f 23//4 53//4 54//4 24//4
f 12//1 42//1 40//1 10//1
f 24//4 54//4 55//4 25//4
f 11//2 41//2 43//2 13//2
f 85//5 86//5 116//5 115//5
f 74//6 72//6 102//6 104//6
f 86//2 87//2 117//2 116//2
f 73//7 75//7 105//7 103//7
f 61//8 62//8 92//8 91//8
f 72//9 102//9 118//9 88//9
f 78//10 108//10 105//10 75//10
f 62//4 63//4 93//4 92//4
f 88//3 118//3 119//3 89//3
f 74//11 104//11 106//11 76//11
f 63//12 64//12 94//12 93//12
f 78//13 108//13 120//13 90//13
f 76//3 106//3 107//3 77//3
f 64//14 65//14 95//14 94//14
f 77//15 107//15 108//15 78//15
f 66//16 61//16 91//16 96//16
f 64//17 94//17 109//17 79//17
f 65//18 67//18 97//18 95//18
f 69//3 80//3 110//3 99//3
f 68//2 66//2 96//2 98//2
f 80//19 81//19 111//19 110//19
f 67//20 69//20 99//20 97//20
f 81//5 82//5 112//5 111//5
f 70//2 68//2 98//2 100//2
f 71//3 83//3 113//3 101//3
f 69//2 99//2 101//2 71//2
f 83//3 84//3 114//3 113//3
f 72//21 70//21 100//21 102//21
f 84//19 85//19 115//19 114//19
f 71//22 73//22 103//22 101//22
f 1//23 2//23 62//23 61//23
f 2//23 3//23 63//23 62//23
f 3//23 4//23 64//23 63//23
f 4//23 5//23 65//23 64//23
f 6//23 1//23 61//23 66//23
f 5//23 7//23 67//23 65//23
f 8//23 6//23 66//23 68//23
f 7//23 9//23 69//23 67//23
f 10//23 8//23 68//23 70//23
f 11//24 9//24 69//24 71//24
f 12//23 10//23 70//23 72//23
f 11//23 13//23 73//23 71//23
f 14//23 12//23 72//23 74//23
f 13//23 15//23 75//23 73//23
f 15//23 18//23 78//23 75//23
f 16//23 14//23 74//23 76//23
f 17//23 16//23 76//23 77//23
f 18//23 17//23 77//23 78//23
f 19//23 4//23 64//23 79//23
f 9//23 20//23 80//23 69//23
f 20//23 21//23 81//23 80//23
f 21//23 22//23 82//23 81//23
f 11//23 23//23 83//23 71//23
f 23//23 24//23 84//23 83//23
f 24//23 25//23 85//23 84//23
f 25//23 26//23 86//23 85//23
f 26//23 27//23 87//23 86//23
f 28//23 12//23 72//23 88//23
f 29//23 28//23 88//23 89//23
f 30//23 18//23 78//23 90//23
f 32//24 31//24 91//24 92//24
f 33//24 32//24 92//24 93//24
f 34//24 33//24 93//24 94//24
f 35//24 34//24 94//24 95//24
f 31//24 36//24 96//24 91//24
f 37//24 35//24 95//24 97//24
f 36//24 38//24 98//24 96//24
f 39//24 37//24 97//24 99//24
f 38//24 40//24 100//24 98//24
f 39//24 41//24 101//24 99//24
f 40//24 42//24 102//24 100//24
f 43//24 41//24 101//24 103//24
f 42//24 44//24 104//24 102//24
f 45//24 43//24 103//24 105//24
f 48//24 45//24 105//24 108//24
f 44//24 46//24 106//24 104//24
f 46//24 47//24 107//24 106//24
f 47//24 48//24 108//24 107//24
f 34//24 49//24 109//24 94//24
f 50//24 39//24 99//24 110//24
f 51//24 50//24 110//24 111//24
f 52//24 51//24 111//24 112//24
f 53//24 41//24 101//24 113//24
f 54//24 53//24 113//24 114//24
f 55//24 54//24 114//24 115//24
f 56//24 55//24 115//24 116//24
f 57//24 56//24 116//24 117//24
f 42//24 58//24 118//24 102//24
f 58//24 59//24 119//24 118//24
f 48//24 60//24 120//24 108//24
f 27//3 57//3 117//3 87//3
f 59//2 29//2 89//2 119//2
f 60//3 30//3 90//3 120//3
f 49//4 19//4 79//4 109//4
f 22//3 52//3 112//3 82//3
